<mxfile host="app.diagrams.net" modified="2023-06-09T13:48:48.056Z" agent="Mozilla/5.0 (Windows NT 10.0; Win64; x64) AppleWebKit/537.36 (KHTML, like Gecko) Chrome/114.0.0.0 Safari/537.36" etag="9o_ZAktSXrusbfQFwiRu" version="21.3.7" type="device">
  <diagram name="Page-1" id="VwFlpGWxuW3M_Pa5ujib">
    <mxGraphModel dx="1050" dy="573" grid="1" gridSize="10" guides="1" tooltips="1" connect="1" arrows="1" fold="1" page="1" pageScale="1" pageWidth="850" pageHeight="1100" math="0" shadow="0">
      <root>
        <mxCell id="0" />
        <mxCell id="1" parent="0" />
        <mxCell id="mIOU62W5dy0iZrOdjkIo-1" value="" style="whiteSpace=wrap;html=1;aspect=fixed;" vertex="1" parent="1">
          <mxGeometry x="230" y="150" width="430" height="430" as="geometry" />
        </mxCell>
        <mxCell id="mIOU62W5dy0iZrOdjkIo-4" style="edgeStyle=orthogonalEdgeStyle;rounded=0;orthogonalLoop=1;jettySize=auto;html=1;exitX=0.5;exitY=1;exitDx=0;exitDy=0;endArrow=oval;endFill=1;" edge="1" parent="1" source="mIOU62W5dy0iZrOdjkIo-3" target="mIOU62W5dy0iZrOdjkIo-5">
          <mxGeometry relative="1" as="geometry">
            <mxPoint x="445" y="620" as="targetPoint" />
          </mxGeometry>
        </mxCell>
        <mxCell id="mIOU62W5dy0iZrOdjkIo-6" style="edgeStyle=orthogonalEdgeStyle;rounded=0;orthogonalLoop=1;jettySize=auto;html=1;exitX=0.75;exitY=0;exitDx=0;exitDy=0;" edge="1" parent="1" source="mIOU62W5dy0iZrOdjkIo-3">
          <mxGeometry relative="1" as="geometry">
            <mxPoint x="590" y="80" as="targetPoint" />
          </mxGeometry>
        </mxCell>
        <mxCell id="mIOU62W5dy0iZrOdjkIo-10" value="5V" style="edgeLabel;html=1;align=center;verticalAlign=middle;resizable=0;points=[];" vertex="1" connectable="0" parent="mIOU62W5dy0iZrOdjkIo-6">
          <mxGeometry x="0.8528" y="-4" relative="1" as="geometry">
            <mxPoint as="offset" />
          </mxGeometry>
        </mxCell>
        <mxCell id="mIOU62W5dy0iZrOdjkIo-7" style="edgeStyle=orthogonalEdgeStyle;rounded=0;orthogonalLoop=1;jettySize=auto;html=1;exitX=0.5;exitY=0;exitDx=0;exitDy=0;" edge="1" parent="1" source="mIOU62W5dy0iZrOdjkIo-3">
          <mxGeometry relative="1" as="geometry">
            <mxPoint x="445" y="80" as="targetPoint" />
          </mxGeometry>
        </mxCell>
        <mxCell id="mIOU62W5dy0iZrOdjkIo-11" value="Ground" style="edgeLabel;html=1;align=center;verticalAlign=middle;resizable=0;points=[];" vertex="1" connectable="0" parent="mIOU62W5dy0iZrOdjkIo-7">
          <mxGeometry x="0.8175" relative="1" as="geometry">
            <mxPoint y="-1" as="offset" />
          </mxGeometry>
        </mxCell>
        <mxCell id="mIOU62W5dy0iZrOdjkIo-8" style="edgeStyle=orthogonalEdgeStyle;rounded=0;orthogonalLoop=1;jettySize=auto;html=1;exitX=0.25;exitY=0;exitDx=0;exitDy=0;" edge="1" parent="1" source="mIOU62W5dy0iZrOdjkIo-3">
          <mxGeometry relative="1" as="geometry">
            <mxPoint x="310" y="80" as="targetPoint" />
          </mxGeometry>
        </mxCell>
        <mxCell id="mIOU62W5dy0iZrOdjkIo-9" value="3.3V" style="edgeLabel;html=1;align=center;verticalAlign=middle;resizable=0;points=[];" vertex="1" connectable="0" parent="mIOU62W5dy0iZrOdjkIo-8">
          <mxGeometry x="0.8958" y="-1" relative="1" as="geometry">
            <mxPoint as="offset" />
          </mxGeometry>
        </mxCell>
        <mxCell id="mIOU62W5dy0iZrOdjkIo-3" value="Pololu Mini 3.3V/5V Regulator with 500mAh Lipo Battery" style="rounded=0;whiteSpace=wrap;html=1;" vertex="1" parent="1">
          <mxGeometry x="330" y="245" width="230" height="100" as="geometry" />
        </mxCell>
        <mxCell id="mIOU62W5dy0iZrOdjkIo-5" value="Charger" style="rounded=0;whiteSpace=wrap;html=1;" vertex="1" parent="1">
          <mxGeometry x="385" y="590" width="120" height="60" as="geometry" />
        </mxCell>
      </root>
    </mxGraphModel>
  </diagram>
</mxfile>
